<?xml version="1.0" encoding="iso-8859-1"?>
<!-- Generator: Adobe Illustrator 19.0.0, SVG Export Plug-In . SVG Version: 6.00 Build 0)  -->
<svg version="1.1" id="Layer_1" xmlns="http://www.w3.org/2000/svg" xmlns:xlink="http://www.w3.org/1999/xlink" x="0px" y="0px"
	 viewBox="0 0 512 512" style="enable-background:new 0 0 512 512;" xml:space="preserve">
<circle style="fill:#F5F5F5;" cx="256" cy="256" r="256"/>
<path style="fill:#E6E6E6;" d="M256,0c-4.024,0-8.02,0.12-12,0.304C379.816,6.572,488,118.632,488,256S379.816,505.424,244,511.696
	c3.98,0.184,7.976,0.304,12,0.304c141.392,0,256-114.608,256-256S397.392,0,256,0z"/>
<path style="fill:#E16B5A;" d="M496.252,344.564c-6.076-12.768-14.688-24.324-25.58-34.004
	c-19.632-17.46-44.916-27.084-71.196-27.084c-30.532,0-59.688,13.072-80.032,35.904c-15.672,17.612-38.752,27.72-63.3,27.72
	c-24.616,0-47.748-10.168-63.452-27.888c-20.316-22.924-49.544-36.08-80.176-36.08c-26.224,0-51.468,9.584-71.052,26.956
	c-10.996,9.748-19.692,21.404-25.792,34.288C51.664,442.22,145.676,512,256,512C366.256,512,460.22,442.3,496.252,344.564z"/>
<path style="fill:#CC6152;" d="M470.676,310.56c-19.628-17.46-44.916-27.084-71.196-27.084c-4.052,0-8.076,0.248-12.06,0.7
	c22.04,2.4,42.86,11.512,59.58,26.384c10.892,9.68,19.504,21.236,25.58,34.004c-34.74,94.224-123.312,162.36-228.416,167.144
	c3.92,0.176,7.872,0.292,11.84,0.292c110.252,0,204.224-69.7,240.252-167.436C490.18,331.788,481.564,320.24,470.676,310.56z"/>
<path style="fill:#F5F5F5;" d="M256.148,465.352c-58.42,0-113.804-24.676-151.952-67.704c-4.08-4.596-3.656-11.632,0.944-15.712
	c4.6-4.084,11.632-3.656,15.712,0.94c33.92,38.264,83.244,60.216,135.296,60.216c51.936,0,101.14-21.828,135.016-59.896
	c4.084-4.584,11.116-5,15.712-0.916s5,11.116,0.916,15.712C369.696,440.804,314.428,465.352,256.148,465.352z"/>
<path style="fill:#E16B5A;" d="M336,256c0,44.22-35.82,80-80,80s-80-35.78-80-80s35.82-80,80-80S336,211.78,336,256z"/>
<path style="fill:#CC6152;" d="M256,176c-2.7,0-5.368,0.14-8,0.404c40.42,4.012,72,38.084,72,79.596s-31.58,75.584-72,79.596
	c2.632,0.26,5.3,0.404,8,0.404c44.18,0,80-35.78,80-80S300.18,176,256,176z"/>
<g>
	<path style="fill:#263740;" d="M204,176c-6.624,0-12-5.376-12-12c0-19.852-16.148-36-36-36s-36,16.148-36,36
		c0,6.624-5.376,12-12,12s-12-5.376-12-12c0-33.084,26.916-60,60-60s60,26.916,60,60C216,170.624,210.624,176,204,176z"/>
	<path style="fill:#263740;" d="M404,176c-6.624,0-12-5.376-12-12c0-19.852-16.148-36-36-36s-36,16.148-36,36
		c0,6.624-5.376,12-12,12s-12-5.376-12-12c0-33.084,26.916-60,60-60s60,26.916,60,60C416,170.624,410.624,176,404,176z"/>
</g>
<g>
</g>
<g>
</g>
<g>
</g>
<g>
</g>
<g>
</g>
<g>
</g>
<g>
</g>
<g>
</g>
<g>
</g>
<g>
</g>
<g>
</g>
<g>
</g>
<g>
</g>
<g>
</g>
<g>
</g>
</svg>
